<?xml version="1.0" encoding="utf-8"?>
<!-- Generator: Adobe Illustrator 19.2.1, SVG Export Plug-In . SVG Version: 6.00 Build 0)  -->
<svg version="1.1" id="Layer_1" xmlns="http://www.w3.org/2000/svg" xmlns:xlink="http://www.w3.org/1999/xlink" x="0px" y="0px"
	 width="80px" height="80px" viewBox="0 0 80 80" enable-background="new 0 0 80 80" xml:space="preserve">
<g>
	<path fill="#FCF8F1" d="M39.8,65c-13.8,0-25-11.2-25-25s11.2-25,25-25s25,11.2,25,25S53.6,65,39.8,65z"/>
	<path fill="#EE5A59" d="M39.8,17c12.7,0,23,10.3,23,23s-10.3,23-23,23s-23-10.3-23-23S27.1,17,39.8,17 M39.8,13
		c-14.9,0-27,12.1-27,27s12.1,27,27,27s27-12.1,27-27S54.7,13,39.8,13L39.8,13z"/>
</g>
</svg>
