<svg xmlns="http://www.w3.org/2000/svg" viewBox="0 0 20 20" width="20" height="20">
  <path fill="#fff" d="M15.9,2H4.1C2.9,2,2,2.9,2,4.1v11.9C2,17.1,2.9,18,4.1,18h11.9c1.1,0,2.1-0.9,2.1-2.1V4.1C18,2.9,17.1,2,15.9,2 z M10,6.8c1.7,0,3.2,1.4,3.2,3.1c0,1.7-1.4,3.1-3.2,3.1c-1.7,0-3.2-1.4-3.2-3.1C6.8,8.2,8.2,6.8,10,6.8z M16,15.3 c0,0.3-0.3,0.7-0.7,0.7H4.7C4.3,16,4,15.7,4,15.3V9h1.2C5.1,9,5,9.8,5,10.2c0,2.6,2.3,4.7,5,4.7s5-2.1,5-4.7C15,9.8,14.9,9,14.8,9 h1.1H16V15.3z M16,6.3C16,6.7,15.7,7,15.3,7h-1.7C13.3,7,13,6.7,13,6.3V4.7C13,4.4,13,4,14,4v0h1.3C15.7,4,16,4.3,16,4.7V6.3z" />
</svg>